HIERARCHY
ROOT Hips
{
	OFFSET 0.00000 0.00000 0.00000
	CHANNELS 6 Xposition Yposition Zposition Zrotation Yrotation Xrotation 
	JOINT LHipJoint
	{
		OFFSET 0 0 0
		CHANNELS 3 Zrotation Yrotation Xrotation
		JOINT LeftUpLeg
		{
			OFFSET 1.39187 -1.60231 0.69152
			CHANNELS 3 Zrotation Yrotation Xrotation
			JOINT LeftLeg
			{
				OFFSET 2.43314 -6.68499 0.00000
				CHANNELS 3 Zrotation Yrotation Xrotation
				JOINT LeftFoot
				{
					OFFSET 2.32059 -6.37578 0.00000
					CHANNELS 3 Zrotation Yrotation Xrotation
					JOINT LeftToeBase
					{
						OFFSET 0.23021 -0.63250 1.71305
						CHANNELS 3 Zrotation Yrotation Xrotation
						End Site
						{
							OFFSET 0.00000 -0.00000 0.91647
						}
					}
				}
			}
		}
	}
	JOINT RHipJoint
	{
		OFFSET 0 0 0
		CHANNELS 3 Zrotation Yrotation Xrotation
		JOINT RightUpLeg
		{
			OFFSET -1.19407 -1.60231 0.69152
			CHANNELS 3 Zrotation Yrotation Xrotation
			JOINT RightLeg
			{
				OFFSET -2.44411 -6.71513 0.00000
				CHANNELS 3 Zrotation Yrotation Xrotation
				JOINT RightFoot
				{
					OFFSET -2.31924 -6.37207 0.00000
					CHANNELS 3 Zrotation Yrotation Xrotation
					JOINT RightToeBase
					{
						OFFSET -0.19473 -0.53502 1.87724
						CHANNELS 3 Zrotation Yrotation Xrotation
						End Site
						{
							OFFSET -0.00000 -0.00000 0.98293
						}
					}
				}
			}
		}
	}
	JOINT LowerBack
	{
		OFFSET 0 0 0
		CHANNELS 3 Zrotation Yrotation Xrotation
		JOINT Spine
		{
			OFFSET -0.01120 1.87307 0.09613
			CHANNELS 3 Zrotation Yrotation Xrotation
			JOINT Spine1
			{
				OFFSET 0.01099 1.87818 0.04834
				CHANNELS 3 Zrotation Yrotation Xrotation
				JOINT Neck
				{
					OFFSET 0 0 0
					CHANNELS 3 Zrotation Yrotation Xrotation
					JOINT Neck1
					{
						OFFSET 0.01702 1.40324 -0.12579
						CHANNELS 3 Zrotation Yrotation Xrotation
						JOINT Head
						{
							OFFSET -0.04239 1.38587 -0.01614
							CHANNELS 3 Zrotation Yrotation Xrotation
							End Site
							{
								OFFSET -0.02510 1.47031 -0.00154
							}
						}
					}
				}
				JOINT LeftShoulder
				{
					OFFSET 0 0 0
					CHANNELS 3 Zrotation Yrotation Xrotation
					JOINT LeftArm
					{
						OFFSET 2.95699 0.62343 0.11653
						CHANNELS 3 Zrotation Yrotation Xrotation
						JOINT LeftForeArm
						{
							OFFSET 4.68382 -0.00000 -0.00000
							CHANNELS 3 Zrotation Yrotation Xrotation
							JOINT LeftHand
							{
								OFFSET 2.98124 -0.00000 -0.00000
								CHANNELS 3 Zrotation Yrotation Xrotation
								JOINT LeftFingerBase
								{
									OFFSET 0 0 0
									CHANNELS 3 Zrotation Yrotation Xrotation
									JOINT LeftHandIndex1
									{
										OFFSET 0.70759 -0.00000 0.00000
										CHANNELS 3 Zrotation Yrotation Xrotation
										End Site
										{
											OFFSET 0.57048 -0.00000 0.00000
										}
									}
								}
								JOINT LThumb
								{
									OFFSET 0 0 0
									CHANNELS 3 Zrotation Yrotation Xrotation
									End Site
									{
										OFFSET 0.57919 -0.00000 0.57919
									}
								}
							}
						}
					}
				}
				JOINT RightShoulder
				{
					OFFSET 0 0 0
					CHANNELS 3 Zrotation Yrotation Xrotation
					JOINT RightArm
					{
						OFFSET -2.99027 0.88714 -0.02793
						CHANNELS 3 Zrotation Yrotation Xrotation
						JOINT RightForeArm
						{
							OFFSET -4.75876 -0.00000 -0.00000
							CHANNELS 3 Zrotation Yrotation Xrotation
							JOINT RightHand
							{
								OFFSET -2.93293 -0.00000 -0.00000
								CHANNELS 3 Zrotation Yrotation Xrotation
								JOINT RightFingerBase
								{
									OFFSET 0 0 0
									CHANNELS 3 Zrotation Yrotation Xrotation
									JOINT RightHandIndex1
									{
										OFFSET -0.83175 -0.00000 0.00000
										CHANNELS 3 Zrotation Yrotation Xrotation
										End Site
										{
											OFFSET -0.67058 -0.00000 0.00000
										}
									}
								}
								JOINT RThumb
								{
									OFFSET 0 0 0
									CHANNELS 3 Zrotation Yrotation Xrotation
									End Site
									{
										OFFSET -0.68082 -0.00000 0.68082
									}
								}
							}
						}
					}
				}
			}
		}
	}
}
MOTION
Frames: 5
Frame Time: .0083333
25.8437 14.7925 1.9752 190.7740 -82.4189 -143.3710 0.0000 0.0000 0.0000 11.4581 -26.3453 -92.4782 12.4803 18.5864 67.5033 0.5151 11.7469 -22.4430 0.1188 2.2225 6.1211 0.0000 0.0000 0.0000 -4.1348 25.3931 -91.5028 -4.6608 -12.9913 39.3359 0.4084 -15.8635 -17.7762 -1.8099 8.4584 -24.1151 0.6793 1.7663 20.6078 1.4344 2.6262 -0.9186 0.4083 1.2003 -12.6918 -1.3054 5.6733 -2.2696 -8.8099 2.1962 -43.6029 -3.3898 0.7972 -14.7795 -0.0000 -0.0000 0.0000 -31.4496 -17.8831 -0.8593 119.6039 -56.4146 -85.3291 -0.0000 -0.0000 4.5696 54.6620 27.0934 32.7143 -7.1250 0.0000 -0.0000 38.1867 67.7932 22.1574 -0.0000 -0.0000 0.0000 23.1649 9.2632 1.7007 -135.0911 50.7238 -97.8318 0.0000 0.0000 12.2798 -55.9914 22.1745 -29.2217 7.1250 -0.0000 -0.0000 -15.9127 4.8924 -17.8904
25.8964 14.7952 1.9894 190.4180 -82.4712 -143.8160 0.0000 0.0000 0.0000 8.9145 -26.2529 -90.3703 13.2017 18.8538 69.7509 0.4009 11.8887 -21.5006 0.2907 3.4670 9.5819 0.0000 0.0000 0.0000 -3.6435 25.3001 -90.5291 -4.5701 -12.8827 38.9308 0.3076 -14.6603 -17.0143 -1.2740 7.1537 -20.1714 0.8305 1.6494 20.2213 1.4677 2.5155 -1.0524 0.4016 1.1446 -12.6175 -1.4489 5.7058 -1.8568 -8.6586 2.3280 -43.3952 -3.3192 0.8970 -14.7602 0.0000 -0.0000 0.0000 -31.9537 -16.9394 -0.4735 120.1492 -56.2701 -85.7830 -0.0000 -0.0000 3.9346 54.3765 27.3074 32.6290 -7.1250 0.0000 -0.0000 37.7778 67.9513 22.0242 0.0000 -0.0000 0.0000 23.8877 7.5379 2.2090 -135.5913 50.4755 -98.2183 0.0000 0.0000 11.8463 -55.5607 21.8256 -28.4655 7.1250 -0.0000 -0.0000 -15.7777 4.1629 -17.5395
25.9513 14.7878 2.0182 190.7010 -82.3522 -144.5660 0.0000 0.0000 0.0000 6.3214 -25.8898 -88.7517 14.0743 19.1364 72.4313 0.4586 11.4468 -21.5874 0.2870 3.4452 9.5208 0.0000 0.0000 0.0000 -3.1245 25.2043 -90.0284 -4.5012 -12.7991 38.6210 0.6156 -17.5893 -18.2663 -2.4040 9.6611 -27.8862 1.0384 1.5090 19.3724 1.5349 2.3840 -1.2308 0.4158 1.0804 -12.3260 -2.6614 5.9883 -1.0842 -7.9060 2.8894 -43.6887 -2.8891 1.2817 -15.1298 -0.0000 -0.0000 0.0000 -32.4302 -15.8192 -0.3976 120.6002 -56.1479 -86.1578 -0.0000 -0.0000 3.4572 53.5026 27.2189 31.7238 -7.1250 0.0000 -0.0000 35.8081 67.5842 20.4698 -0.0000 -0.0000 0.0000 24.3002 6.1568 2.7059 -136.0030 50.2675 -98.5354 0.0000 0.0000 11.4197 -55.2822 21.3856 -27.7561 7.1250 -0.0000 -0.0000 -15.7498 3.4019 -17.3078
26.0187 14.7711 2.0415 189.3060 -82.3514 -143.4230 0.0000 0.0000 0.0000 3.8331 -25.5976 -87.3506 14.9126 19.3678 74.9734 0.5630 10.7348 -21.8605 0.0618 1.6037 4.4117 0.0000 0.0000 0.0000 -3.0222 24.9532 -89.8918 -4.4320 -12.7141 38.3075 0.2371 -13.6656 -16.3083 -1.0087 6.3906 -17.9219 1.1057 1.2974 18.2232 1.5679 2.1127 -1.4088 0.5147 0.9611 -11.8615 -1.9036 5.8541 -2.0523 -8.5151 2.7010 -42.2841 -3.1540 1.1752 -14.1477 0.0000 0.0000 0.0000 -32.6981 -14.8289 -0.5796 120.9602 -56.0486 -86.4566 -0.0000 -0.0000 3.0413 52.6689 27.1282 30.8748 -7.1250 0.0000 -0.0000 33.9973 67.2221 19.0638 0.0000 0.0000 0.0000 24.6249 5.0763 2.9562 -136.3505 50.0895 -98.8023 0.0000 0.0000 10.9298 -55.1551 21.3838 -27.6426 7.1250 -0.0000 -0.0000 -15.6807 3.3267 -17.2063
26.1054 14.7609 2.0626 187.2520 -82.4601 -141.4690 0.0000 0.0000 0.0000 1.6539 -25.4085 -86.1066 15.7022 19.5513 77.3431 0.5912 9.7645 -21.1892 0.0192 0.8951 2.4603 0.0000 0.0000 0.0000 -3.0221 24.5843 -89.8972 -4.3192 -12.5734 37.7920 0.3795 -14.7612 -16.1173 -1.3470 7.3476 -20.7493 1.2553 1.0679 17.0878 1.5022 1.8253 -1.6894 0.4540 0.8233 -11.5113 -1.4800 5.7917 -2.2048 -8.7829 2.6558 -41.4968 -3.2913 1.1529 -13.7007 -0.0000 0.0000 0.0000 -32.6428 -14.0796 -0.7513 121.0755 -56.0165 -86.5522 -0.0000 -0.0000 2.6825 52.3361 27.1008 30.5486 -7.1250 0.0000 -0.0000 33.3007 67.0866 18.5369 -0.0000 0.0000 0.0000 25.0830 4.0061 3.1168 -136.5952 49.9626 -98.9898 0.0000 0.0000 10.5206 -55.4065 21.6737 -28.1687 7.1250 -0.0000 -0.0000 -15.7366 3.8665 -17.4135
